<svg width="72" height="52" viewBox="0 0 72 52" fill="none" xmlns="http://www.w3.org/2000/svg">
<path d="M14.09 20.2535L8.48306 12.4414L2.90516 20.2535H0V17.5337H1.51068L6.79807 10.1267L1.51068 2.71975H0V0H2.90516L8.48306 7.81206L14.09 0H16.9952V2.71975H15.4845L10.1971 10.1267L15.4845 17.5337H16.9952V20.2535H14.09Z" fill="url(#paint0_linear_201_340)"/>
<path d="M22.5161 20.2535L19.6109 16.3764V3.87709L22.5161 0H32.3355V2.71975H23.8525L22.3127 4.80297V8.82473H30.36V11.5445H22.3127V15.4505L23.8525 17.5337H32.3355V20.2535H22.5161Z" fill="url(#paint1_linear_201_340)"/>
<path d="M47.3354 20.2535H39.0267L34.669 16.4632V13.8302H37.3708V15.248L40.0145 17.5337H46.3477L49.0785 15.219V12.9912L47.5388 11.6602H37.9227L34.669 8.8826V3.76136L39.1139 0H47.4226L51.7803 3.79029V6.71258H49.0785V5.0055L46.4058 2.71975H40.0726L37.3708 5.0055V7.60952L38.9105 8.94046H48.4975L51.7803 11.7181V16.4921L47.3354 20.2535Z" fill="url(#paint2_linear_201_340)"/>
<path d="M64.91 2.71975L63.3994 4.77403V20.2535H60.6976V4.77403L59.1578 2.71975H54.1029V0H60.4652L62.0339 2.05428L63.6027 0H70.0522V2.71975H64.91Z" fill="url(#paint3_linear_201_340)"/>
<path d="M4.18343 34.4663L2.67274 36.5206V40.3976H10.2552V43.1174H2.67274V52H0V35.5947L2.84705 31.7465H12.6084V34.4663H4.18343Z" fill="url(#paint4_linear_201_340)"/>
<path d="M29.688 52H17.864L14.9298 48.1518V35.5947L17.864 31.7465H29.688L32.5931 35.5947V48.1518L29.688 52ZM29.8913 36.5206L28.3516 34.4663H19.2004L17.6316 36.5206V47.226L19.2004 49.2802H28.3516L29.8913 47.226V36.5206Z" fill="url(#paint5_linear_201_340)"/>
<path d="M38.3456 52L35.4985 48.1518V31.7465H38.1422V47.226L39.6529 49.2802H46.48V52H38.3456Z" fill="url(#paint6_linear_201_340)"/>
<path d="M48.8044 52V31.7465H51.419V52H48.8044Z" fill="url(#paint7_linear_201_340)"/>
<path d="M69.0948 52H57.2709L54.3366 48.1518V35.5947L57.2709 31.7465H69.0948L72 35.5947V48.1518L69.0948 52ZM69.2982 36.5206L67.7585 34.4663H58.6072L57.0384 36.5206V47.226L58.6072 49.2802H67.7585L69.2982 47.226V36.5206Z" fill="url(#paint8_linear_201_340)"/>
<defs>
<linearGradient id="paint0_linear_201_340" x1="36" y1="0" x2="36" y2="52" gradientUnits="userSpaceOnUse">
<stop stop-color="#D63882"/>
<stop offset="1" stop-color="#6938D2"/>
</linearGradient>
<linearGradient id="paint1_linear_201_340" x1="36" y1="0" x2="36" y2="52" gradientUnits="userSpaceOnUse">
<stop stop-color="#D63882"/>
<stop offset="1" stop-color="#6938D2"/>
</linearGradient>
<linearGradient id="paint2_linear_201_340" x1="36" y1="0" x2="36" y2="52" gradientUnits="userSpaceOnUse">
<stop stop-color="#D63882"/>
<stop offset="1" stop-color="#6938D2"/>
</linearGradient>
<linearGradient id="paint3_linear_201_340" x1="36" y1="0" x2="36" y2="52" gradientUnits="userSpaceOnUse">
<stop stop-color="#D63882"/>
<stop offset="1" stop-color="#6938D2"/>
</linearGradient>
<linearGradient id="paint4_linear_201_340" x1="36" y1="0" x2="36" y2="52" gradientUnits="userSpaceOnUse">
<stop stop-color="#D63882"/>
<stop offset="1" stop-color="#6938D2"/>
</linearGradient>
<linearGradient id="paint5_linear_201_340" x1="36" y1="0" x2="36" y2="52" gradientUnits="userSpaceOnUse">
<stop stop-color="#D63882"/>
<stop offset="1" stop-color="#6938D2"/>
</linearGradient>
<linearGradient id="paint6_linear_201_340" x1="36" y1="0" x2="36" y2="52" gradientUnits="userSpaceOnUse">
<stop stop-color="#D63882"/>
<stop offset="1" stop-color="#6938D2"/>
</linearGradient>
<linearGradient id="paint7_linear_201_340" x1="36" y1="0" x2="36" y2="52" gradientUnits="userSpaceOnUse">
<stop stop-color="#D63882"/>
<stop offset="1" stop-color="#6938D2"/>
</linearGradient>
<linearGradient id="paint8_linear_201_340" x1="36" y1="0" x2="36" y2="52" gradientUnits="userSpaceOnUse">
<stop stop-color="#D63882"/>
<stop offset="1" stop-color="#6938D2"/>
</linearGradient>
</defs>
</svg>
