<svg xmlns="http://www.w3.org/2000/svg" aria-hidden="true" style="position:absolute; width:0; height:0; overflow:hidden">
  <defs>
   <symbol id="icon-Xest-Folio" viewBox="0 0 44 32">
  <linearGradient id="gradient" x1="0%" y1="0%" x2="100%" y2="0%">
    <stop offset="0%" style="stop-color:#D63882" />
    <stop offset="100%" style="stop-color:#6938D2" />
  </linearGradient>

  <path d="M8.648 12.464l-3.441-4.807-3.423 4.807h-1.783v-1.674h0.927l3.245-4.558-3.245-4.558h-0.927v-1.674h1.783l3.423 4.807 3.441-4.807h1.783v1.674h-0.927l-3.245 4.558 3.245 4.558h0.927v1.674h-1.783z" fill="url(#gradient)"></path>
  <path d="M13.819 12.464l-1.783-2.386v-7.692l1.783-2.386h6.027v1.674h-5.207l-0.945 1.282v2.475h4.939v1.674h-4.939v2.404l0.945 1.282h5.207v1.674h-6.027z" fill="url(#gradient)"></path>
  <path d="M29.052 12.464h-5.099l-2.675-2.332v-1.62h1.658v0.872l1.623 1.407h3.887l1.676-1.424v-1.371l-0.945-0.819h-5.902l-1.997-1.709v-3.152l2.728-2.315h5.099l2.675 2.333v1.798h-1.658v-1.050l-1.64-1.407h-3.887l-1.658 1.407v1.602l0.945 0.819h5.884l2.015 1.709v2.938l-2.728 2.315z" fill="url(#gradient)"></path>
  <path d="M39.839 1.674l-0.927 1.264v9.526h-1.658v-9.526l-0.945-1.264h-3.102v-1.674h3.905l0.963 1.264 0.963-1.264h3.958v1.674h-3.156z" fill="url(#gradient)"></path>
  <path d="M2.568 21.21l-0.927 1.264v2.386h4.654v1.674h-4.654v5.466h-1.64v-10.096l1.747-2.368h5.991v1.674h-5.171z" fill="url(#gradient)"></path>
  <path d="M18.221 32h-7.257l-1.801-2.368v-7.728l1.801-2.368h7.257l1.783 2.368v7.728l-1.783 2.368zM18.346 22.474l-0.945-1.264h-5.617l-0.963 1.264v6.588l0.963 1.264h5.617l0.945-1.264v-6.588z" fill="url(#gradient)"></path>
  <path d="M23.535 32l-1.747-2.368v-10.096h1.623v9.526l0.927 1.264h4.19v1.674h-4.993z" fill="url(#gradient)"></path>
  <path d="M29.954 32v-12.464h1.605v12.464h-1.605z" fill="url(#gradient)"></path>
  <path d="M42.407 32h-7.257l-1.801-2.368v-7.728l1.801-2.368h7.257l1.783 2.368v7.728l-1.783 2.368zM42.532 22.474l-0.945-1.264h-5.617l-0.963 1.264v6.588l0.963 1.264h5.617l0.945-1.264v-6.588z" fill="url(#gradient)"></path>
</symbol>
<symbol id="icon-burger" viewBox="0 0 32 32">
<path d="M0 0h32v32h-32v-32z"></path>
<path d="M-321-32h375v7232h-375v-7232z"></path>
<path stroke-linejoin="miter" stroke-linecap="butt" stroke-miterlimit="4" stroke-width="1" d="M4 0.5h24c1.933 0 3.5 1.567 3.5 3.5v24c0 1.933-1.567 3.5-3.5 3.5h-24c-1.933 0-3.5-1.567-3.5-3.5v-24c0-1.933 1.567-3.5 3.5-3.5z"></path>
<path d="M7.705 24c-0.294 0-0.54-0.128-0.738-0.384s-0.299-0.572-0.299-0.949c0-0.378 0.1-0.694 0.299-0.949s0.445-0.384 0.738-0.384h16.593c0.294 0 0.54 0.128 0.738 0.384s0.299 0.572 0.299 0.949c0 0.378-0.099 0.694-0.299 0.949s-0.445 0.384-0.738 0.384h-16.593zM7.705 17.333c-0.294 0-0.54-0.128-0.738-0.384s-0.299-0.572-0.299-0.949 0.1-0.695 0.299-0.951c0.198-0.255 0.445-0.383 0.738-0.383h16.593c0.294 0 0.54 0.127 0.738 0.383s0.299 0.573 0.299 0.951-0.099 0.694-0.299 0.949c-0.198 0.256-0.445 0.384-0.738 0.384h-16.593zM7.705 10.667c-0.294 0-0.54-0.128-0.738-0.383s-0.299-0.573-0.299-0.951 0.1-0.695 0.299-0.951c0.198-0.255 0.445-0.383 0.738-0.383h16.593c0.294 0 0.54 0.128 0.738 0.383s0.299 0.573 0.299 0.951-0.099 0.695-0.299 0.951c-0.198 0.255-0.445 0.383-0.738 0.383h-16.593z"></path>
</symbol>
    <symbol id="icon-arrow-up" viewBox="0 0 32 32">
      <path fill="#fff" stroke="#fff" stroke-width="1.144" d="M7.213 24.709a1.04 1.04 0 0 1-.093-1.364l.093-.106L21.921 8.531a1.04 1.04 0 0 1 1.564 1.364l-.093.107L8.684 24.71a1.04 1.04 0 0 1-1.471 0z" style="fill:var(--color2, #fff);stroke:var(--color2, #fff)"/>
      <path fill="#fff" stroke="#fff" stroke-width="1.144" d="M10.819 10.331a1.04 1.04 0 0 1-.158-2.069l.154-.012 11.839-.025a1.04 1.04 0 0 1 1.031.888l.011.154-.025 11.84a1.04 1.04 0 0 1-2.069.15l-.011-.154.022-10.795-10.794.023z" style="fill:var(--color2, #fff);stroke:var(--color2, #fff)"/>
    </symbol>
    <symbol id="icon-quotes" viewBox="0 0 31 32">
      <path d="M10.45 15.615H4.483c.102-5.941 1.272-6.921 4.923-9.084a.887.887 0 0 0 .305-1.221.873.873 0 0 0-1.209-.305c-4.3 2.544-5.801 4.097-5.801 11.488v6.857a3.934 3.934 0 0 0 3.931 3.931h3.817c2.239 0 3.931-1.692 3.931-3.931v-3.817c0-2.226-1.692-3.918-3.931-3.918zM24.215 15.615h-5.967c.102-5.941 1.272-6.921 4.923-9.084a.887.887 0 0 0 .305-1.221.887.887 0 0 0-1.221-.305c-4.3 2.544-5.801 4.097-5.801 11.501v6.857a3.934 3.934 0 0 0 3.931 3.931h3.817c2.239 0 3.931-1.692 3.931-3.931v-3.817c.013-2.239-1.679-3.931-3.918-3.931z"/>
    </symbol>
    <symbol id="icon-star" viewBox="0 0 32 32">
      <path fill="#ffb23f" stroke="#ffb23f" stroke-linecap="round" stroke-linejoin="round" stroke-width="1.926" d="m16.339 3.428 3.967 8.036 8.871 1.297-6.419 6.252 1.515 8.832-7.934-4.172-7.934 4.172 1.515-8.832-6.419-6.252 8.871-1.297 3.967-8.036z" style="fill:var(--color4, #ffb23f);stroke:var(--color4, #ffb23f)"/>
    </symbol>
    <symbol id="icon-arrow-down" viewBox="0 0 51 32">
      <path fill="none" stroke="#fff" stroke-linecap="round" stroke-linejoin="round" stroke-width="5.507" d="M44.494 5.793 26.136 24.151 7.778 5.793" style="stroke:var(--color2, #fff)"/>
    </symbol>
    <symbol id="icon-facebook" viewBox="0 0 17 32">
      <path d="M4.287 32V16.985H0v-5.406h4.287V6.961C4.287 3.332 6.819 0 12.654 0c2.362 0 4.109.21 4.109.21l-.138 5.049s-1.781-.016-3.726-.016c-2.104 0-2.441.898-2.441 2.389v3.948h6.334l-.276 5.406h-6.058v15.015H4.286z"/>
    </symbol>
    <symbol id="icon-in" viewBox="0 0 37 32">
      <path fill="#e2e2e2" d="M0 0h36.923v32H0V0z" style="fill:var(--color1, #e2e2e2)"/>
      <path fill="#fff" d="M-102.154-8663.385h461.538V237.538h-461.538v-8900.923z" style="fill:var(--color2, #fff)"/>
      <path fill="#0b0b0b" d="M8.528 32V10.41H.78V32h7.748zM4.655 7.46c2.702 0 4.384-1.658 4.384-3.73C8.989 1.611 7.357 0 4.707 0S.324 1.612.324 3.73c0 2.072 1.681 3.73 4.282 3.73h.051zM12.816 32h7.748V19.943c0-.645.05-1.29.255-1.751.56-1.289 1.835-2.625 3.975-2.625 2.804 0 3.925 1.98 3.925 4.882v11.55h7.747v-12.38c0-6.632-3.822-9.717-8.92-9.717-4.18 0-6.015 2.164-7.034 3.638h.052v-3.131h-7.748c.102 2.026 0 21.59 0 21.59V32z" style="fill:var(--color5, #0b0b0b)"/>
    </symbol>
    <symbol id="icon-instagram" viewBox="0 0 36 32">
      <path d="M26.645 9.38c1.145 0 2.073-.86 2.073-1.92s-.928-1.92-2.073-1.92-2.073.86-2.073 1.92.928 1.92 2.073 1.92zM17.423 7.784c-1.754 0-3.47.482-4.928 1.385s-2.596 2.186-3.267 3.687c-.671 1.501-.847 3.153-.505 4.747s1.187 3.058 2.428 4.207c1.241 1.149 2.821 1.932 4.542 2.249s3.504.154 5.125-.468 3.006-1.675 3.981-3.026 1.495-2.94 1.495-4.565c0-2.179-.935-4.269-2.598-5.81s-3.92-2.406-6.273-2.406zm0 13.549c-1.139 0-2.252-.313-3.199-.899s-1.685-1.419-2.121-2.394-.55-2.047-.328-3.081c.222-1.035.771-1.985 1.576-2.731s1.831-1.254 2.948-1.46c1.117-.206 2.275-.1 3.327.303s1.951 1.087 2.584 1.964.97 1.908.97 2.963c0 1.415-.607 2.771-1.687 3.771s-2.544 1.562-4.072 1.562z"/>
      <path d="M17.422 2.883c4.612 0 5.159.016 6.98.093a10.22 10.22 0 0 1 3.207.551c.745.266 1.422.674 1.987 1.197s1.005 1.15 1.293 1.84c.38.951.582 1.956.595 2.971.084 1.687.101 2.193.101 6.467s-.017 4.777-.101 6.464a8.274 8.274 0 0 1-.595 2.971c-.287.69-.728 1.317-1.293 1.84s-1.241.931-1.987 1.197a10.248 10.248 0 0 1-3.207.551c-1.821.077-2.368.093-6.98.093s-5.159-.016-6.98-.093a10.22 10.22 0 0 1-3.207-.551c-.745-.266-1.422-.674-1.987-1.197s-1.005-1.15-1.293-1.84a8.287 8.287 0 0 1-.595-2.971c-.083-1.687-.101-2.193-.101-6.465s.017-4.779.101-6.465a8.274 8.274 0 0 1 .595-2.971c.287-.69.728-1.317 1.293-1.84s1.242-.931 1.987-1.197a10.248 10.248 0 0 1 3.207-.551c1.821-.077 2.368-.093 6.98-.093zm0-2.883c-4.692 0-5.28.019-7.123.096-1.433.027-2.85.278-4.192.744-1.148.411-2.19 1.04-3.06 1.846S1.498 4.457 1.054 5.52a10.987 10.987 0 0 0-.803 3.884C.167 11.111.147 11.653.147 16s.02 4.891.104 6.597c.029 1.327.301 2.64.803 3.883.444 1.063 1.123 2.028 1.993 2.834s1.912 1.435 3.06 1.846c1.342.466 2.76.717 4.193.744 1.843.077 2.43.096 7.122.096s5.28-.019 7.123-.096a13.573 13.573 0 0 0 4.193-.744c1.148-.411 2.19-1.04 3.06-1.846s1.549-1.771 1.993-2.834c.502-1.243.774-2.557.802-3.884.083-1.707.104-2.249.104-6.596s-.02-4.891-.104-6.597a11.004 11.004 0 0 0-.803-3.883c-.444-1.063-1.123-2.028-1.993-2.834S29.885 1.251 28.737.84a13.601 13.601 0 0 0-4.193-.743C22.701.017 22.115 0 17.423 0z"/>
    </symbol>
    <symbol id="icon-be" viewBox="0 0 55 32">
      <path d="M36.176 2.117h13.733v3.086H36.176V2.117zm-13.76 12.209c3.036-1.345 4.626-3.392 4.626-6.554C27.042 1.517 22.017 0 16.214 0H.244v31.394h16.418c6.154 0 11.93-2.742 11.93-9.117 0-3.94-2.01-6.854-6.175-7.951zM7.691 5.356h6.987c2.692 0 5.108.695 5.108 3.59 0 2.665-1.879 3.736-4.543 3.736H7.692V5.356zm7.951 20.708H7.684v-8.646H15.8c3.277 0 5.349 1.269 5.349 4.482 0 3.162-2.471 4.163-5.507 4.163zm39.637-5.706c0-6.726-4.247-12.331-11.93-12.331-7.469 0-12.549 5.209-12.549 12.038C30.8 27.142 35.612 32 43.349 32c5.858 0 9.651-2.442 11.475-7.651h-5.941c-.647 1.945-3.277 2.965-5.321 2.965-3.951 0-6.017-2.142-6.017-5.783h17.684c.021-.376.048-.771.048-1.173zm-17.733-2.767c.213-2.99 2.368-4.858 5.59-4.858 3.387 0 5.08 1.843 5.376 4.858H37.546z"/>
    </symbol>
    <symbol id="icon-ball" viewBox="0 0 36 32">
      <path d="M18.076 0C8.539 0 .801 7.167.801 16s7.738 16 17.275 16c9.519 0 17.275-7.167 17.275-16S27.595 0 18.076 0zm11.41 7.375c2.127 2.399 3.304 5.4 3.335 8.504-.487-.087-5.358-1.007-10.267-.433-.114-.227-.207-.469-.32-.712a39.818 39.818 0 0 0-.973-1.979c5.433-2.048 7.906-4.997 8.224-5.38zm-11.41-5.014c3.747 0 7.176 1.3 9.78 3.435-.262.347-2.492 3.107-7.738 4.928-2.418-4.112-5.096-7.48-5.509-8 1.136-.246 2.3-.368 3.466-.364v.001zm-6.277 1.283c.393.487 3.016 3.871 5.47 7.896-6.896 1.701-12.985 1.667-13.64 1.667.956-4.235 4.048-7.757 8.17-9.563zM3.311 16.017v-.416c.638.017 7.794.104 15.159-1.944.43.764.823 1.544 1.198 2.325-.187.052-.393.104-.58.156-7.607 2.273-11.655 8.485-11.992 9.007-2.437-2.505-3.785-5.757-3.785-9.128zm14.765 13.658c-3.41 0-6.557-1.076-9.049-2.88.262-.504 3.259-5.849 11.578-8.539.037-.017.058-.017.094-.035 2.08 4.98 2.922 9.163 3.148 10.36a15.508 15.508 0 0 1-5.771 1.093zm8.225-2.343c-.15-.833-.937-4.824-2.868-9.736 4.628-.676 8.675.435 9.182.591-.638 3.8-2.999 7.08-6.314 9.145z"/>
    </symbol>
  </defs>
</svg>